<svg width="30" height="23" viewBox="0 0 30 23" fill="none" xmlns="http://www.w3.org/2000/svg">
<g clip-path="url(#clip0_632_35)">
<path d="M0 2.00903C0 0.899473 0.895431 0 2 0H28C29.1046 0 30 0.899474 30 2.00903V20.991C30 22.1005 29.1046 23 28 23H2C0.89543 23 0 22.1005 0 20.991V2.00903Z" fill="#5BEFBA"/>
<path d="M14.9999 3.42474L24.1121 11.5L14.9999 19.5753L5.88782 11.5L14.9999 3.42474Z" fill="#D6FF7E"/>
<path d="M18.5151 11.5C18.5151 13.4501 16.9413 15.031 14.9999 15.031C13.0586 15.031 11.4848 13.4501 11.4848 11.5C11.4848 9.54987 13.0586 7.96898 14.9999 7.96898C16.9413 7.96898 18.5151 9.54987 18.5151 11.5Z" fill="#8D9DF1"/>
</g>
<defs>
<clipPath id="clip0_632_35">
<rect width="30" height="23" fill="white"/>
</clipPath>
</defs>
</svg>
